<?xml version="1.0" encoding="UTF-8" standalone="no"?>
<svg
   xmlns:dc="http://purl.org/dc/elements/1.1/"
   xmlns:cc="http://creativecommons.org/ns#"
   xmlns:rdf="http://www.w3.org/1999/02/22-rdf-syntax-ns#"
   xmlns:svg="http://www.w3.org/2000/svg"
   xmlns="http://www.w3.org/2000/svg"
   xmlns:sodipodi="http://sodipodi.sourceforge.net/DTD/sodipodi-0.dtd"
   xmlns:inkscape="http://www.inkscape.org/namespaces/inkscape"
   viewBox="0 0 512 512"
   fill="#a4afb7"
   version="1.1"
   id="svg4"
   sodipodi:docname="star-of-life-solid.svg"
   inkscape:version="1.0.1 (3bc2e813f5, 2020-09-07)">
  <metadata
     id="metadata10">
    <rdf:RDF>
      <cc:Work
         rdf:about="">
        <dc:format>image/svg+xml</dc:format>
        <dc:type
           rdf:resource="http://purl.org/dc/dcmitype/StillImage" />
      </cc:Work>
    </rdf:RDF>
  </metadata>
  <defs
     id="defs8" />
  <sodipodi:namedview
     pagecolor="#ffffff"
     bordercolor="#666666"
     borderopacity="1"
     objecttolerance="10"
     gridtolerance="10"
     guidetolerance="10"
     inkscape:pageopacity="0"
     inkscape:pageshadow="2"
     inkscape:window-width="1688"
     inkscape:window-height="1111"
     id="namedview6"
     showgrid="false"
     inkscape:zoom="1.4355469"
     inkscape:cx="256"
     inkscape:cy="256"
     inkscape:window-x="0"
     inkscape:window-y="0"
     inkscape:window-maximized="0"
     inkscape:current-layer="svg4" />
  <!--! Font Awesome Pro 6.0.0 by @fontawesome - https://fontawesome.com License - https://fontawesome.com/license (Commercial License) Copyright 2022 Fonticons, Inc. -->
  <path
     d="M489.1 363.3l-24.03 41.59c-6.635 11.48-21.33 15.41-32.82 8.78l-129.1-74.56V488c0 13.25-10.75 24-24.02 24H231.1c-13.27 0-24.02-10.75-24.02-24v-148.9L78.87 413.7c-11.49 6.629-26.19 2.698-32.82-8.78l-24.03-41.59c-6.635-11.48-2.718-26.14 8.774-32.77L159.9 256L30.8 181.5C19.3 174.8 15.39 160.2 22.02 148.7l24.03-41.59c6.635-11.48 21.33-15.41 32.82-8.781l129.1 74.56L207.1 24c0-13.25 10.75-24 24.02-24h48.04c13.27 0 24.02 10.75 24.02 24l.0005 148.9l129.1-74.56c11.49-6.629 26.19-2.698 32.82 8.78l24.02 41.59c6.637 11.48 2.718 26.14-8.774 32.77L352.1 256l129.1 74.53C492.7 337.2 496.6 351.8 489.1 363.3z"
     id="path2"
     style="fill:#000000" />
</svg>
